<svg xmlns="http://www.w3.org/2000/svg" version="1.1" xmlns:xlink="http://www.w3.org/1999/xlink" xmlns:svgjs="http://svgjs.com/svgjs" width="1440" height="560" preserveAspectRatio="none" viewBox="0 0 1440 560"><g mask="url(&quot;#SvgjsMask1416&quot;)" fill="none"><rect width="1440" height="560" x="0" y="0" fill="rgba(2, 2, 2, 1)"></rect><g transform="translate(0, 0)"><path d="M31.2 280 a16.8 16.8 0 1 0 33.6 0 a16.8 16.8 0 1 0 -33.6 0zM31.2 238 a16.8 16.8 0 1 0 33.6 0 a16.8 16.8 0 1 0 -33.6 0zM31.2 322 a16.8 16.8 0 1 0 33.6 0 a16.8 16.8 0 1 0 -33.6 0zM31.2 196 a16.8 16.8 0 1 0 33.6 0 a16.8 16.8 0 1 0 -33.6 0zM31.2 364 a16.8 16.8 0 1 0 33.6 0 a16.8 16.8 0 1 0 -33.6 0zM31.2 154 a16.8 16.8 0 1 0 33.6 0 a16.8 16.8 0 1 0 -33.6 0zM31.2 406 a16.8 16.8 0 1 0 33.6 0 a16.8 16.8 0 1 0 -33.6 0zM31.2 112 a16.8 16.8 0 1 0 33.6 0 a16.8 16.8 0 1 0 -33.6 0zM31.2 448 a16.8 16.8 0 1 0 33.6 0 a16.8 16.8 0 1 0 -33.6 0zM31.2 70 a16.8 16.8 0 1 0 33.6 0 a16.8 16.8 0 1 0 -33.6 0zM31.2 490 a16.8 16.8 0 1 0 33.6 0 a16.8 16.8 0 1 0 -33.6 0z" fill="url(#SvgjsLinearGradient1417)"></path><path d="M73.2 280 a16.8 16.8 0 1 0 33.6 0 a16.8 16.8 0 1 0 -33.6 0zM73.2 238 a16.8 16.8 0 1 0 33.6 0 a16.8 16.8 0 1 0 -33.6 0zM73.2 322 a16.8 16.8 0 1 0 33.6 0 a16.8 16.8 0 1 0 -33.6 0zM73.2 196 a16.8 16.8 0 1 0 33.6 0 a16.8 16.8 0 1 0 -33.6 0zM73.2 364 a16.8 16.8 0 1 0 33.6 0 a16.8 16.8 0 1 0 -33.6 0zM73.2 154 a16.8 16.8 0 1 0 33.6 0 a16.8 16.8 0 1 0 -33.6 0zM73.2 406 a16.8 16.8 0 1 0 33.6 0 a16.8 16.8 0 1 0 -33.6 0z" fill="url(#SvgjsLinearGradient1417)"></path><path d="M115.2 280 a16.8 16.8 0 1 0 33.6 0 a16.8 16.8 0 1 0 -33.6 0zM115.2 238 a16.8 16.8 0 1 0 33.6 0 a16.8 16.8 0 1 0 -33.6 0zM115.2 322 a16.8 16.8 0 1 0 33.6 0 a16.8 16.8 0 1 0 -33.6 0z" fill="url(#SvgjsLinearGradient1417)"></path><path d="M157.2 280 a16.8 16.8 0 1 0 33.6 0 a16.8 16.8 0 1 0 -33.6 0zM157.2 238 a16.8 16.8 0 1 0 33.6 0 a16.8 16.8 0 1 0 -33.6 0zM157.2 322 a16.8 16.8 0 1 0 33.6 0 a16.8 16.8 0 1 0 -33.6 0z" fill="url(#SvgjsLinearGradient1417)"></path><path d="M199.2 280 a16.8 16.8 0 1 0 33.6 0 a16.8 16.8 0 1 0 -33.6 0zM199.2 238 a16.8 16.8 0 1 0 33.6 0 a16.8 16.8 0 1 0 -33.6 0zM199.2 322 a16.8 16.8 0 1 0 33.6 0 a16.8 16.8 0 1 0 -33.6 0zM199.2 196 a16.8 16.8 0 1 0 33.6 0 a16.8 16.8 0 1 0 -33.6 0zM199.2 364 a16.8 16.8 0 1 0 33.6 0 a16.8 16.8 0 1 0 -33.6 0z" fill="url(#SvgjsLinearGradient1417)"></path><path d="M241.2 280 a16.8 16.8 0 1 0 33.6 0 a16.8 16.8 0 1 0 -33.6 0zM241.2 238 a16.8 16.8 0 1 0 33.6 0 a16.8 16.8 0 1 0 -33.6 0zM241.2 322 a16.8 16.8 0 1 0 33.6 0 a16.8 16.8 0 1 0 -33.6 0zM241.2 196 a16.8 16.8 0 1 0 33.6 0 a16.8 16.8 0 1 0 -33.6 0zM241.2 364 a16.8 16.8 0 1 0 33.6 0 a16.8 16.8 0 1 0 -33.6 0zM241.2 154 a16.8 16.8 0 1 0 33.6 0 a16.8 16.8 0 1 0 -33.6 0zM241.2 406 a16.8 16.8 0 1 0 33.6 0 a16.8 16.8 0 1 0 -33.6 0zM241.2 112 a16.8 16.8 0 1 0 33.6 0 a16.8 16.8 0 1 0 -33.6 0zM241.2 448 a16.8 16.8 0 1 0 33.6 0 a16.8 16.8 0 1 0 -33.6 0zM241.2 70 a16.8 16.8 0 1 0 33.6 0 a16.8 16.8 0 1 0 -33.6 0zM241.2 490 a16.8 16.8 0 1 0 33.6 0 a16.8 16.8 0 1 0 -33.6 0z" fill="url(#SvgjsLinearGradient1417)"></path><path d="M283.2 280 a16.8 16.8 0 1 0 33.6 0 a16.8 16.8 0 1 0 -33.6 0zM283.2 238 a16.8 16.8 0 1 0 33.6 0 a16.8 16.8 0 1 0 -33.6 0zM283.2 322 a16.8 16.8 0 1 0 33.6 0 a16.8 16.8 0 1 0 -33.6 0zM283.2 196 a16.8 16.8 0 1 0 33.6 0 a16.8 16.8 0 1 0 -33.6 0zM283.2 364 a16.8 16.8 0 1 0 33.6 0 a16.8 16.8 0 1 0 -33.6 0zM283.2 154 a16.8 16.8 0 1 0 33.6 0 a16.8 16.8 0 1 0 -33.6 0zM283.2 406 a16.8 16.8 0 1 0 33.6 0 a16.8 16.8 0 1 0 -33.6 0zM283.2 112 a16.8 16.8 0 1 0 33.6 0 a16.8 16.8 0 1 0 -33.6 0zM283.2 448 a16.8 16.8 0 1 0 33.6 0 a16.8 16.8 0 1 0 -33.6 0z" fill="url(#SvgjsLinearGradient1417)"></path><path d="M325.2 280 a16.8 16.8 0 1 0 33.6 0 a16.8 16.8 0 1 0 -33.6 0zM325.2 238 a16.8 16.8 0 1 0 33.6 0 a16.8 16.8 0 1 0 -33.6 0zM325.2 322 a16.8 16.8 0 1 0 33.6 0 a16.8 16.8 0 1 0 -33.6 0zM325.2 196 a16.8 16.8 0 1 0 33.6 0 a16.8 16.8 0 1 0 -33.6 0zM325.2 364 a16.8 16.8 0 1 0 33.6 0 a16.8 16.8 0 1 0 -33.6 0z" fill="url(#SvgjsLinearGradient1417)"></path><path d="M367.2 280 a16.8 16.8 0 1 0 33.6 0 a16.8 16.8 0 1 0 -33.6 0zM367.2 238 a16.8 16.8 0 1 0 33.6 0 a16.8 16.8 0 1 0 -33.6 0zM367.2 322 a16.8 16.8 0 1 0 33.6 0 a16.8 16.8 0 1 0 -33.6 0zM367.2 196 a16.8 16.8 0 1 0 33.6 0 a16.8 16.8 0 1 0 -33.6 0zM367.2 364 a16.8 16.8 0 1 0 33.6 0 a16.8 16.8 0 1 0 -33.6 0zM367.2 154 a16.8 16.8 0 1 0 33.6 0 a16.8 16.8 0 1 0 -33.6 0zM367.2 406 a16.8 16.8 0 1 0 33.6 0 a16.8 16.8 0 1 0 -33.6 0zM367.2 112 a16.8 16.8 0 1 0 33.6 0 a16.8 16.8 0 1 0 -33.6 0zM367.2 448 a16.8 16.8 0 1 0 33.6 0 a16.8 16.8 0 1 0 -33.6 0z" fill="url(#SvgjsLinearGradient1417)"></path><path d="M409.2 280 a16.8 16.8 0 1 0 33.6 0 a16.8 16.8 0 1 0 -33.6 0zM409.2 238 a16.8 16.8 0 1 0 33.6 0 a16.8 16.8 0 1 0 -33.6 0zM409.2 322 a16.8 16.8 0 1 0 33.6 0 a16.8 16.8 0 1 0 -33.6 0zM409.2 196 a16.8 16.8 0 1 0 33.6 0 a16.8 16.8 0 1 0 -33.6 0zM409.2 364 a16.8 16.8 0 1 0 33.6 0 a16.8 16.8 0 1 0 -33.6 0zM409.2 154 a16.8 16.8 0 1 0 33.6 0 a16.8 16.8 0 1 0 -33.6 0zM409.2 406 a16.8 16.8 0 1 0 33.6 0 a16.8 16.8 0 1 0 -33.6 0zM409.2 112 a16.8 16.8 0 1 0 33.6 0 a16.8 16.8 0 1 0 -33.6 0zM409.2 448 a16.8 16.8 0 1 0 33.6 0 a16.8 16.8 0 1 0 -33.6 0zM409.2 70 a16.8 16.8 0 1 0 33.6 0 a16.8 16.8 0 1 0 -33.6 0zM409.2 490 a16.8 16.8 0 1 0 33.6 0 a16.8 16.8 0 1 0 -33.6 0z" fill="url(#SvgjsLinearGradient1417)"></path><path d="M451.2 280 a16.8 16.8 0 1 0 33.6 0 a16.8 16.8 0 1 0 -33.6 0zM451.2 238 a16.8 16.8 0 1 0 33.6 0 a16.8 16.8 0 1 0 -33.6 0zM451.2 322 a16.8 16.8 0 1 0 33.6 0 a16.8 16.8 0 1 0 -33.6 0zM451.2 196 a16.8 16.8 0 1 0 33.6 0 a16.8 16.8 0 1 0 -33.6 0zM451.2 364 a16.8 16.8 0 1 0 33.6 0 a16.8 16.8 0 1 0 -33.6 0zM451.2 154 a16.8 16.8 0 1 0 33.6 0 a16.8 16.8 0 1 0 -33.6 0zM451.2 406 a16.8 16.8 0 1 0 33.6 0 a16.8 16.8 0 1 0 -33.6 0zM451.2 112 a16.8 16.8 0 1 0 33.6 0 a16.8 16.8 0 1 0 -33.6 0zM451.2 448 a16.8 16.8 0 1 0 33.6 0 a16.8 16.8 0 1 0 -33.6 0zM451.2 70 a16.8 16.8 0 1 0 33.6 0 a16.8 16.8 0 1 0 -33.6 0zM451.2 490 a16.8 16.8 0 1 0 33.6 0 a16.8 16.8 0 1 0 -33.6 0z" fill="url(#SvgjsLinearGradient1417)"></path><path d="M493.2 280 a16.8 16.8 0 1 0 33.6 0 a16.8 16.8 0 1 0 -33.6 0zM493.2 238 a16.8 16.8 0 1 0 33.6 0 a16.8 16.8 0 1 0 -33.6 0zM493.2 322 a16.8 16.8 0 1 0 33.6 0 a16.8 16.8 0 1 0 -33.6 0zM493.2 196 a16.8 16.8 0 1 0 33.6 0 a16.8 16.8 0 1 0 -33.6 0zM493.2 364 a16.8 16.8 0 1 0 33.6 0 a16.8 16.8 0 1 0 -33.6 0zM493.2 154 a16.8 16.8 0 1 0 33.6 0 a16.8 16.8 0 1 0 -33.6 0zM493.2 406 a16.8 16.8 0 1 0 33.6 0 a16.8 16.8 0 1 0 -33.6 0zM493.2 112 a16.8 16.8 0 1 0 33.6 0 a16.8 16.8 0 1 0 -33.6 0zM493.2 448 a16.8 16.8 0 1 0 33.6 0 a16.8 16.8 0 1 0 -33.6 0z" fill="url(#SvgjsLinearGradient1417)"></path><path d="M535.2 280 a16.8 16.8 0 1 0 33.6 0 a16.8 16.8 0 1 0 -33.6 0zM535.2 238 a16.8 16.8 0 1 0 33.6 0 a16.8 16.8 0 1 0 -33.6 0zM535.2 322 a16.8 16.8 0 1 0 33.6 0 a16.8 16.8 0 1 0 -33.6 0z" fill="url(#SvgjsLinearGradient1417)"></path><path d="M577.2 280 a16.8 16.8 0 1 0 33.6 0 a16.8 16.8 0 1 0 -33.6 0zM577.2 238 a16.8 16.8 0 1 0 33.6 0 a16.8 16.8 0 1 0 -33.6 0zM577.2 322 a16.8 16.8 0 1 0 33.6 0 a16.8 16.8 0 1 0 -33.6 0zM577.2 196 a16.8 16.8 0 1 0 33.6 0 a16.8 16.8 0 1 0 -33.6 0zM577.2 364 a16.8 16.8 0 1 0 33.6 0 a16.8 16.8 0 1 0 -33.6 0zM577.2 154 a16.8 16.8 0 1 0 33.6 0 a16.8 16.8 0 1 0 -33.6 0zM577.2 406 a16.8 16.8 0 1 0 33.6 0 a16.8 16.8 0 1 0 -33.6 0zM577.2 112 a16.8 16.8 0 1 0 33.6 0 a16.8 16.8 0 1 0 -33.6 0zM577.2 448 a16.8 16.8 0 1 0 33.6 0 a16.8 16.8 0 1 0 -33.6 0zM577.2 70 a16.8 16.8 0 1 0 33.6 0 a16.8 16.8 0 1 0 -33.6 0zM577.2 490 a16.8 16.8 0 1 0 33.6 0 a16.8 16.8 0 1 0 -33.6 0z" fill="url(#SvgjsLinearGradient1417)"></path><path d="M619.2 280 a16.8 16.8 0 1 0 33.6 0 a16.8 16.8 0 1 0 -33.6 0zM619.2 238 a16.8 16.8 0 1 0 33.6 0 a16.8 16.8 0 1 0 -33.6 0zM619.2 322 a16.8 16.8 0 1 0 33.6 0 a16.8 16.8 0 1 0 -33.6 0z" fill="url(#SvgjsLinearGradient1417)"></path><path d="M661.2 280 a16.8 16.8 0 1 0 33.6 0 a16.8 16.8 0 1 0 -33.6 0zM661.2 238 a16.8 16.8 0 1 0 33.6 0 a16.8 16.8 0 1 0 -33.6 0zM661.2 322 a16.8 16.8 0 1 0 33.6 0 a16.8 16.8 0 1 0 -33.6 0zM661.2 196 a16.8 16.8 0 1 0 33.6 0 a16.8 16.8 0 1 0 -33.6 0zM661.2 364 a16.8 16.8 0 1 0 33.6 0 a16.8 16.8 0 1 0 -33.6 0zM661.2 154 a16.8 16.8 0 1 0 33.6 0 a16.8 16.8 0 1 0 -33.6 0zM661.2 406 a16.8 16.8 0 1 0 33.6 0 a16.8 16.8 0 1 0 -33.6 0zM661.2 112 a16.8 16.8 0 1 0 33.6 0 a16.8 16.8 0 1 0 -33.6 0zM661.2 448 a16.8 16.8 0 1 0 33.6 0 a16.8 16.8 0 1 0 -33.6 0z" fill="url(#SvgjsLinearGradient1417)"></path><path d="M703.2 280 a16.8 16.8 0 1 0 33.6 0 a16.8 16.8 0 1 0 -33.6 0zM703.2 238 a16.8 16.8 0 1 0 33.6 0 a16.8 16.8 0 1 0 -33.6 0zM703.2 322 a16.8 16.8 0 1 0 33.6 0 a16.8 16.8 0 1 0 -33.6 0zM703.2 196 a16.8 16.8 0 1 0 33.6 0 a16.8 16.8 0 1 0 -33.6 0zM703.2 364 a16.8 16.8 0 1 0 33.6 0 a16.8 16.8 0 1 0 -33.6 0zM703.2 154 a16.8 16.8 0 1 0 33.6 0 a16.8 16.8 0 1 0 -33.6 0zM703.2 406 a16.8 16.8 0 1 0 33.6 0 a16.8 16.8 0 1 0 -33.6 0zM703.2 112 a16.8 16.8 0 1 0 33.6 0 a16.8 16.8 0 1 0 -33.6 0zM703.2 448 a16.8 16.8 0 1 0 33.6 0 a16.8 16.8 0 1 0 -33.6 0zM703.2 70 a16.8 16.8 0 1 0 33.6 0 a16.8 16.8 0 1 0 -33.6 0zM703.2 490 a16.8 16.8 0 1 0 33.6 0 a16.8 16.8 0 1 0 -33.6 0zM703.2 28 a16.8 16.8 0 1 0 33.6 0 a16.8 16.8 0 1 0 -33.6 0zM703.2 532 a16.8 16.8 0 1 0 33.6 0 a16.8 16.8 0 1 0 -33.6 0z" fill="url(#SvgjsLinearGradient1417)"></path><path d="M745.2 280 a16.8 16.8 0 1 0 33.6 0 a16.8 16.8 0 1 0 -33.6 0zM745.2 238 a16.8 16.8 0 1 0 33.6 0 a16.8 16.8 0 1 0 -33.6 0zM745.2 322 a16.8 16.8 0 1 0 33.6 0 a16.8 16.8 0 1 0 -33.6 0zM745.2 196 a16.8 16.8 0 1 0 33.6 0 a16.8 16.8 0 1 0 -33.6 0zM745.2 364 a16.8 16.8 0 1 0 33.6 0 a16.8 16.8 0 1 0 -33.6 0z" fill="url(#SvgjsLinearGradient1417)"></path><path d="M787.2 280 a16.8 16.8 0 1 0 33.6 0 a16.8 16.8 0 1 0 -33.6 0zM787.2 238 a16.8 16.8 0 1 0 33.6 0 a16.8 16.8 0 1 0 -33.6 0zM787.2 322 a16.8 16.8 0 1 0 33.6 0 a16.8 16.8 0 1 0 -33.6 0zM787.2 196 a16.8 16.8 0 1 0 33.6 0 a16.8 16.8 0 1 0 -33.6 0zM787.2 364 a16.8 16.8 0 1 0 33.6 0 a16.8 16.8 0 1 0 -33.6 0zM787.2 154 a16.8 16.8 0 1 0 33.6 0 a16.8 16.8 0 1 0 -33.6 0zM787.2 406 a16.8 16.8 0 1 0 33.6 0 a16.8 16.8 0 1 0 -33.6 0zM787.2 112 a16.8 16.8 0 1 0 33.6 0 a16.8 16.8 0 1 0 -33.6 0zM787.2 448 a16.8 16.8 0 1 0 33.6 0 a16.8 16.8 0 1 0 -33.6 0zM787.2 70 a16.8 16.8 0 1 0 33.6 0 a16.8 16.8 0 1 0 -33.6 0zM787.2 490 a16.8 16.8 0 1 0 33.6 0 a16.8 16.8 0 1 0 -33.6 0zM787.2 28 a16.8 16.8 0 1 0 33.6 0 a16.8 16.8 0 1 0 -33.6 0zM787.2 532 a16.8 16.8 0 1 0 33.6 0 a16.8 16.8 0 1 0 -33.6 0z" fill="url(#SvgjsLinearGradient1417)"></path><path d="M829.2 280 a16.8 16.8 0 1 0 33.6 0 a16.8 16.8 0 1 0 -33.6 0zM829.2 238 a16.8 16.8 0 1 0 33.6 0 a16.8 16.8 0 1 0 -33.6 0zM829.2 322 a16.8 16.8 0 1 0 33.6 0 a16.8 16.8 0 1 0 -33.6 0zM829.2 196 a16.8 16.8 0 1 0 33.6 0 a16.8 16.8 0 1 0 -33.6 0zM829.2 364 a16.8 16.8 0 1 0 33.6 0 a16.8 16.8 0 1 0 -33.6 0zM829.2 154 a16.8 16.8 0 1 0 33.6 0 a16.8 16.8 0 1 0 -33.6 0zM829.2 406 a16.8 16.8 0 1 0 33.6 0 a16.8 16.8 0 1 0 -33.6 0zM829.2 112 a16.8 16.8 0 1 0 33.6 0 a16.8 16.8 0 1 0 -33.6 0zM829.2 448 a16.8 16.8 0 1 0 33.6 0 a16.8 16.8 0 1 0 -33.6 0zM829.2 70 a16.8 16.8 0 1 0 33.6 0 a16.8 16.8 0 1 0 -33.6 0zM829.2 490 a16.8 16.8 0 1 0 33.6 0 a16.8 16.8 0 1 0 -33.6 0z" fill="url(#SvgjsLinearGradient1417)"></path><path d="M871.2 280 a16.8 16.8 0 1 0 33.6 0 a16.8 16.8 0 1 0 -33.6 0zM871.2 238 a16.8 16.8 0 1 0 33.6 0 a16.8 16.8 0 1 0 -33.6 0zM871.2 322 a16.8 16.8 0 1 0 33.6 0 a16.8 16.8 0 1 0 -33.6 0z" fill="url(#SvgjsLinearGradient1417)"></path><path d="M913.2 280 a16.8 16.8 0 1 0 33.6 0 a16.8 16.8 0 1 0 -33.6 0zM913.2 238 a16.8 16.8 0 1 0 33.6 0 a16.8 16.8 0 1 0 -33.6 0zM913.2 322 a16.8 16.8 0 1 0 33.6 0 a16.8 16.8 0 1 0 -33.6 0zM913.2 196 a16.8 16.8 0 1 0 33.6 0 a16.8 16.8 0 1 0 -33.6 0zM913.2 364 a16.8 16.8 0 1 0 33.6 0 a16.8 16.8 0 1 0 -33.6 0z" fill="url(#SvgjsLinearGradient1417)"></path><path d="M955.2 280 a16.8 16.8 0 1 0 33.6 0 a16.8 16.8 0 1 0 -33.6 0zM955.2 238 a16.8 16.8 0 1 0 33.6 0 a16.8 16.8 0 1 0 -33.6 0zM955.2 322 a16.8 16.8 0 1 0 33.6 0 a16.8 16.8 0 1 0 -33.6 0zM955.2 196 a16.8 16.8 0 1 0 33.6 0 a16.8 16.8 0 1 0 -33.6 0zM955.2 364 a16.8 16.8 0 1 0 33.6 0 a16.8 16.8 0 1 0 -33.6 0zM955.2 154 a16.8 16.8 0 1 0 33.6 0 a16.8 16.8 0 1 0 -33.6 0zM955.2 406 a16.8 16.8 0 1 0 33.6 0 a16.8 16.8 0 1 0 -33.6 0z" fill="url(#SvgjsLinearGradient1417)"></path><path d="M997.2 280 a16.8 16.8 0 1 0 33.6 0 a16.8 16.8 0 1 0 -33.6 0zM997.2 238 a16.8 16.8 0 1 0 33.6 0 a16.8 16.8 0 1 0 -33.6 0zM997.2 322 a16.8 16.8 0 1 0 33.6 0 a16.8 16.8 0 1 0 -33.6 0zM997.2 196 a16.8 16.8 0 1 0 33.6 0 a16.8 16.8 0 1 0 -33.6 0zM997.2 364 a16.8 16.8 0 1 0 33.6 0 a16.8 16.8 0 1 0 -33.6 0zM997.2 154 a16.8 16.8 0 1 0 33.6 0 a16.8 16.8 0 1 0 -33.6 0zM997.2 406 a16.8 16.8 0 1 0 33.6 0 a16.8 16.8 0 1 0 -33.6 0zM997.2 112 a16.8 16.8 0 1 0 33.6 0 a16.8 16.8 0 1 0 -33.6 0zM997.2 448 a16.8 16.8 0 1 0 33.6 0 a16.8 16.8 0 1 0 -33.6 0zM997.2 70 a16.8 16.8 0 1 0 33.6 0 a16.8 16.8 0 1 0 -33.6 0zM997.2 490 a16.8 16.8 0 1 0 33.6 0 a16.8 16.8 0 1 0 -33.6 0z" fill="url(#SvgjsLinearGradient1417)"></path><path d="M1039.2 280 a16.8 16.8 0 1 0 33.6 0 a16.8 16.8 0 1 0 -33.6 0zM1039.2 238 a16.8 16.8 0 1 0 33.6 0 a16.8 16.8 0 1 0 -33.6 0zM1039.2 322 a16.8 16.8 0 1 0 33.6 0 a16.8 16.8 0 1 0 -33.6 0z" fill="url(#SvgjsLinearGradient1417)"></path><path d="M1081.2 280 a16.8 16.8 0 1 0 33.6 0 a16.8 16.8 0 1 0 -33.6 0zM1081.2 238 a16.8 16.8 0 1 0 33.6 0 a16.8 16.8 0 1 0 -33.6 0zM1081.2 322 a16.8 16.8 0 1 0 33.6 0 a16.8 16.8 0 1 0 -33.6 0zM1081.2 196 a16.8 16.8 0 1 0 33.6 0 a16.8 16.8 0 1 0 -33.6 0zM1081.2 364 a16.8 16.8 0 1 0 33.6 0 a16.8 16.8 0 1 0 -33.6 0zM1081.2 154 a16.8 16.8 0 1 0 33.6 0 a16.8 16.8 0 1 0 -33.6 0zM1081.2 406 a16.8 16.8 0 1 0 33.6 0 a16.8 16.8 0 1 0 -33.6 0z" fill="url(#SvgjsLinearGradient1417)"></path><path d="M1123.2 280 a16.8 16.8 0 1 0 33.6 0 a16.8 16.8 0 1 0 -33.6 0zM1123.2 238 a16.8 16.8 0 1 0 33.6 0 a16.8 16.8 0 1 0 -33.6 0zM1123.2 322 a16.8 16.8 0 1 0 33.6 0 a16.8 16.8 0 1 0 -33.6 0zM1123.2 196 a16.8 16.8 0 1 0 33.6 0 a16.8 16.8 0 1 0 -33.6 0zM1123.2 364 a16.8 16.8 0 1 0 33.6 0 a16.8 16.8 0 1 0 -33.6 0zM1123.2 154 a16.8 16.8 0 1 0 33.6 0 a16.8 16.8 0 1 0 -33.6 0zM1123.2 406 a16.8 16.8 0 1 0 33.6 0 a16.8 16.8 0 1 0 -33.6 0zM1123.2 112 a16.8 16.8 0 1 0 33.6 0 a16.8 16.8 0 1 0 -33.6 0zM1123.2 448 a16.8 16.8 0 1 0 33.6 0 a16.8 16.8 0 1 0 -33.6 0zM1123.2 70 a16.8 16.8 0 1 0 33.6 0 a16.8 16.8 0 1 0 -33.6 0zM1123.2 490 a16.8 16.8 0 1 0 33.6 0 a16.8 16.8 0 1 0 -33.6 0zM1123.2 28 a16.8 16.8 0 1 0 33.6 0 a16.8 16.8 0 1 0 -33.6 0zM1123.2 532 a16.8 16.8 0 1 0 33.6 0 a16.8 16.8 0 1 0 -33.6 0z" fill="url(#SvgjsLinearGradient1417)"></path><path d="M1165.2 280 a16.8 16.8 0 1 0 33.6 0 a16.8 16.8 0 1 0 -33.6 0zM1165.2 238 a16.8 16.8 0 1 0 33.6 0 a16.8 16.8 0 1 0 -33.6 0zM1165.2 322 a16.8 16.8 0 1 0 33.6 0 a16.8 16.8 0 1 0 -33.6 0zM1165.2 196 a16.8 16.8 0 1 0 33.6 0 a16.8 16.8 0 1 0 -33.6 0zM1165.2 364 a16.8 16.8 0 1 0 33.6 0 a16.8 16.8 0 1 0 -33.6 0zM1165.2 154 a16.8 16.8 0 1 0 33.6 0 a16.8 16.8 0 1 0 -33.6 0zM1165.2 406 a16.8 16.8 0 1 0 33.6 0 a16.8 16.8 0 1 0 -33.6 0zM1165.2 112 a16.8 16.8 0 1 0 33.6 0 a16.8 16.8 0 1 0 -33.6 0zM1165.2 448 a16.8 16.8 0 1 0 33.6 0 a16.8 16.8 0 1 0 -33.6 0zM1165.2 70 a16.8 16.8 0 1 0 33.6 0 a16.8 16.8 0 1 0 -33.6 0zM1165.2 490 a16.8 16.8 0 1 0 33.6 0 a16.8 16.8 0 1 0 -33.6 0zM1165.2 28 a16.8 16.8 0 1 0 33.6 0 a16.8 16.8 0 1 0 -33.6 0zM1165.2 532 a16.8 16.8 0 1 0 33.6 0 a16.8 16.8 0 1 0 -33.6 0z" fill="url(#SvgjsLinearGradient1417)"></path><path d="M1207.2 280 a16.8 16.8 0 1 0 33.6 0 a16.8 16.8 0 1 0 -33.6 0zM1207.2 238 a16.8 16.8 0 1 0 33.6 0 a16.8 16.8 0 1 0 -33.6 0zM1207.2 322 a16.8 16.8 0 1 0 33.6 0 a16.8 16.8 0 1 0 -33.6 0zM1207.2 196 a16.8 16.8 0 1 0 33.6 0 a16.8 16.8 0 1 0 -33.6 0zM1207.2 364 a16.8 16.8 0 1 0 33.6 0 a16.8 16.8 0 1 0 -33.6 0zM1207.2 154 a16.8 16.8 0 1 0 33.6 0 a16.8 16.8 0 1 0 -33.6 0zM1207.2 406 a16.8 16.8 0 1 0 33.6 0 a16.8 16.8 0 1 0 -33.6 0z" fill="url(#SvgjsLinearGradient1417)"></path><path d="M1249.2 280 a16.8 16.8 0 1 0 33.6 0 a16.8 16.8 0 1 0 -33.6 0zM1249.2 238 a16.8 16.8 0 1 0 33.6 0 a16.8 16.8 0 1 0 -33.6 0zM1249.2 322 a16.8 16.8 0 1 0 33.6 0 a16.8 16.8 0 1 0 -33.6 0zM1249.2 196 a16.8 16.8 0 1 0 33.6 0 a16.8 16.8 0 1 0 -33.6 0zM1249.2 364 a16.8 16.8 0 1 0 33.6 0 a16.8 16.8 0 1 0 -33.6 0zM1249.2 154 a16.8 16.8 0 1 0 33.6 0 a16.8 16.8 0 1 0 -33.6 0zM1249.2 406 a16.8 16.8 0 1 0 33.6 0 a16.8 16.8 0 1 0 -33.6 0z" fill="url(#SvgjsLinearGradient1417)"></path><path d="M1291.2 280 a16.8 16.8 0 1 0 33.6 0 a16.8 16.8 0 1 0 -33.6 0zM1291.2 238 a16.8 16.8 0 1 0 33.6 0 a16.8 16.8 0 1 0 -33.6 0zM1291.2 322 a16.8 16.8 0 1 0 33.6 0 a16.8 16.8 0 1 0 -33.6 0zM1291.2 196 a16.8 16.8 0 1 0 33.6 0 a16.8 16.8 0 1 0 -33.6 0zM1291.2 364 a16.8 16.8 0 1 0 33.6 0 a16.8 16.8 0 1 0 -33.6 0zM1291.2 154 a16.8 16.8 0 1 0 33.6 0 a16.8 16.8 0 1 0 -33.6 0zM1291.2 406 a16.8 16.8 0 1 0 33.6 0 a16.8 16.8 0 1 0 -33.6 0z" fill="url(#SvgjsLinearGradient1417)"></path><path d="M1333.2 280 a16.8 16.8 0 1 0 33.6 0 a16.8 16.8 0 1 0 -33.6 0zM1333.2 238 a16.8 16.8 0 1 0 33.6 0 a16.8 16.8 0 1 0 -33.6 0zM1333.2 322 a16.8 16.8 0 1 0 33.6 0 a16.8 16.8 0 1 0 -33.6 0z" fill="url(#SvgjsLinearGradient1417)"></path><path d="M1375.2 280 a16.8 16.8 0 1 0 33.6 0 a16.8 16.8 0 1 0 -33.6 0zM1375.2 238 a16.8 16.8 0 1 0 33.6 0 a16.8 16.8 0 1 0 -33.6 0zM1375.2 322 a16.8 16.8 0 1 0 33.6 0 a16.8 16.8 0 1 0 -33.6 0zM1375.2 196 a16.8 16.8 0 1 0 33.6 0 a16.8 16.8 0 1 0 -33.6 0zM1375.2 364 a16.8 16.8 0 1 0 33.6 0 a16.8 16.8 0 1 0 -33.6 0zM1375.2 154 a16.8 16.8 0 1 0 33.6 0 a16.8 16.8 0 1 0 -33.6 0zM1375.2 406 a16.8 16.8 0 1 0 33.6 0 a16.8 16.8 0 1 0 -33.6 0zM1375.2 112 a16.8 16.8 0 1 0 33.6 0 a16.8 16.8 0 1 0 -33.6 0zM1375.2 448 a16.8 16.8 0 1 0 33.6 0 a16.8 16.8 0 1 0 -33.6 0zM1375.2 70 a16.8 16.8 0 1 0 33.6 0 a16.8 16.8 0 1 0 -33.6 0zM1375.2 490 a16.8 16.8 0 1 0 33.6 0 a16.8 16.8 0 1 0 -33.6 0zM1375.2 28 a16.8 16.8 0 1 0 33.6 0 a16.8 16.8 0 1 0 -33.6 0zM1375.2 532 a16.8 16.8 0 1 0 33.6 0 a16.8 16.8 0 1 0 -33.6 0z" fill="url(#SvgjsLinearGradient1417)"></path></g></g><defs><mask id="SvgjsMask1416"><rect width="1440" height="560" fill="#ffffff"></rect></mask><linearGradient x1="1214.96832" y1="-215.02375999999995" x2="225.03168000000002" y2="775.02376" gradientUnits="userSpaceOnUse" id="SvgjsLinearGradient1417"><stop stop-color="rgba(195, 58, 61, 1)" offset="0.51"></stop><stop stop-color="rgba(17, 125, 221, 1)" offset="0.54"></stop></linearGradient><path d="M-16.8 0 a16.8 16.8 0 1 0 33.6 0 a16.8 16.8 0 1 0 -33.6 0zM-16.8 42 a16.8 16.8 0 1 0 33.6 0 a16.8 16.8 0 1 0 -33.6 0zM-16.8 -42 a16.8 16.8 0 1 0 33.6 0 a16.8 16.8 0 1 0 -33.6 0z"></path><path d="M-16.8 0 a16.8 16.8 0 1 0 33.6 0 a16.8 16.8 0 1 0 -33.6 0zM-16.8 42 a16.8 16.8 0 1 0 33.6 0 a16.8 16.8 0 1 0 -33.6 0zM-16.8 -42 a16.8 16.8 0 1 0 33.6 0 a16.8 16.8 0 1 0 -33.6 0zM-16.8 84 a16.8 16.8 0 1 0 33.6 0 a16.8 16.8 0 1 0 -33.6 0zM-16.8 -84 a16.8 16.8 0 1 0 33.6 0 a16.8 16.8 0 1 0 -33.6 0z"></path><path d="M-16.8 0 a16.8 16.8 0 1 0 33.6 0 a16.8 16.8 0 1 0 -33.6 0zM-16.8 42 a16.8 16.8 0 1 0 33.6 0 a16.8 16.8 0 1 0 -33.6 0zM-16.8 -42 a16.8 16.8 0 1 0 33.6 0 a16.8 16.8 0 1 0 -33.6 0zM-16.8 84 a16.8 16.8 0 1 0 33.6 0 a16.8 16.8 0 1 0 -33.6 0zM-16.8 -84 a16.8 16.8 0 1 0 33.6 0 a16.8 16.8 0 1 0 -33.6 0zM-16.8 126 a16.8 16.8 0 1 0 33.6 0 a16.8 16.8 0 1 0 -33.6 0zM-16.8 -126 a16.8 16.8 0 1 0 33.6 0 a16.8 16.8 0 1 0 -33.6 0z"></path><path d="M-16.8 0 a16.8 16.8 0 1 0 33.6 0 a16.8 16.8 0 1 0 -33.6 0zM-16.8 42 a16.8 16.8 0 1 0 33.6 0 a16.8 16.8 0 1 0 -33.6 0zM-16.8 -42 a16.8 16.8 0 1 0 33.6 0 a16.8 16.8 0 1 0 -33.6 0zM-16.8 84 a16.8 16.8 0 1 0 33.6 0 a16.8 16.8 0 1 0 -33.6 0zM-16.8 -84 a16.8 16.8 0 1 0 33.6 0 a16.8 16.8 0 1 0 -33.6 0zM-16.8 126 a16.8 16.8 0 1 0 33.6 0 a16.8 16.8 0 1 0 -33.6 0zM-16.8 -126 a16.8 16.8 0 1 0 33.6 0 a16.8 16.8 0 1 0 -33.6 0zM-16.8 168 a16.8 16.8 0 1 0 33.6 0 a16.8 16.8 0 1 0 -33.6 0zM-16.8 -168 a16.8 16.8 0 1 0 33.6 0 a16.8 16.8 0 1 0 -33.6 0z"></path><path d="M-16.8 0 a16.8 16.8 0 1 0 33.6 0 a16.8 16.8 0 1 0 -33.6 0zM-16.8 42 a16.8 16.8 0 1 0 33.6 0 a16.8 16.8 0 1 0 -33.6 0zM-16.8 -42 a16.8 16.8 0 1 0 33.6 0 a16.8 16.8 0 1 0 -33.6 0zM-16.8 84 a16.8 16.8 0 1 0 33.6 0 a16.8 16.8 0 1 0 -33.6 0zM-16.8 -84 a16.8 16.8 0 1 0 33.6 0 a16.8 16.8 0 1 0 -33.6 0zM-16.8 126 a16.8 16.8 0 1 0 33.6 0 a16.8 16.8 0 1 0 -33.6 0zM-16.8 -126 a16.8 16.8 0 1 0 33.6 0 a16.8 16.8 0 1 0 -33.6 0zM-16.8 168 a16.8 16.8 0 1 0 33.6 0 a16.8 16.8 0 1 0 -33.6 0zM-16.8 -168 a16.8 16.8 0 1 0 33.6 0 a16.8 16.8 0 1 0 -33.6 0zM-16.8 210 a16.8 16.8 0 1 0 33.6 0 a16.8 16.8 0 1 0 -33.6 0zM-16.8 -210 a16.8 16.8 0 1 0 33.6 0 a16.8 16.8 0 1 0 -33.6 0z"></path><path d="M-16.8 0 a16.8 16.8 0 1 0 33.6 0 a16.8 16.8 0 1 0 -33.6 0zM-16.8 42 a16.8 16.8 0 1 0 33.6 0 a16.8 16.8 0 1 0 -33.6 0zM-16.8 -42 a16.8 16.8 0 1 0 33.6 0 a16.8 16.8 0 1 0 -33.6 0zM-16.8 84 a16.8 16.8 0 1 0 33.6 0 a16.8 16.8 0 1 0 -33.6 0zM-16.8 -84 a16.8 16.8 0 1 0 33.6 0 a16.8 16.8 0 1 0 -33.6 0zM-16.8 126 a16.8 16.8 0 1 0 33.6 0 a16.8 16.8 0 1 0 -33.6 0zM-16.8 -126 a16.8 16.8 0 1 0 33.6 0 a16.8 16.8 0 1 0 -33.6 0zM-16.8 168 a16.8 16.8 0 1 0 33.6 0 a16.8 16.8 0 1 0 -33.6 0zM-16.8 -168 a16.8 16.8 0 1 0 33.6 0 a16.8 16.8 0 1 0 -33.6 0zM-16.8 210 a16.8 16.8 0 1 0 33.6 0 a16.8 16.8 0 1 0 -33.6 0zM-16.8 -210 a16.8 16.8 0 1 0 33.6 0 a16.8 16.8 0 1 0 -33.6 0zM-16.8 252 a16.8 16.8 0 1 0 33.6 0 a16.8 16.8 0 1 0 -33.6 0zM-16.8 -252 a16.8 16.8 0 1 0 33.6 0 a16.8 16.8 0 1 0 -33.6 0z"></path></defs></svg>