<svg xmlns="http://www.w3.org/2000/svg" version="1.1" xmlns:xlink="http://www.w3.org/1999/xlink" xmlns:svgjs="http://svgjs.com/svgjs" width="1440" height="560" preserveAspectRatio="none" viewBox="0 0 1440 560"><g mask="url(&quot;#SvgjsMask1008&quot;)" fill="none"><rect width="1440" height="560" x="0" y="0" fill="rgba(2, 2, 2, 1)"></rect><g transform="translate(0, 0)" stroke-linecap="round" stroke="url(#SvgjsLinearGradient1009)"><path d="M60 121 L60 166" stroke-width="45"></path><path d="M60 233.5 L60 278.5" stroke-width="45"></path><path d="M60 346 L60 439" stroke-width="45"></path><path d="M120 220.03 L120 339.97" stroke-width="45"></path><path d="M180 185.14 L180 374.86" stroke-width="45"></path><path d="M240 171.76 L240 388.24" stroke-width="45"></path><path d="M300 71.12 L300 488.88" stroke-width="45"></path><path d="M360 29.08 L360 530.92" stroke-width="45"></path><path d="M420 236.93 L420 323.07" stroke-width="45"></path><path d="M480 180.3 L480 379.7" stroke-width="45"></path><path d="M540 185.72 L540 230.72" stroke-width="45"></path><path d="M540 298.22 L540 374.28" stroke-width="45"></path><path d="M600 225.22 L600 334.77" stroke-width="45"></path><path d="M660 80.72999999999999 L660 479.27" stroke-width="45"></path><path d="M720 84.7 L720 475.3" stroke-width="45"></path><path d="M780 228.29 L780 331.71" stroke-width="45"></path><path d="M840 103.44 L840 238.44" stroke-width="45"></path><path d="M840 305.94 L840 456.56" stroke-width="45"></path><path d="M900 204.56 L900 355.44" stroke-width="45"></path><path d="M960 98.96 L960 188.95999999999998" stroke-width="45"></path><path d="M960 256.46 L960 461.04" stroke-width="45"></path><path d="M1020 55.88 L1020 145.88" stroke-width="45"></path><path d="M1020 213.38 L1020 348.38" stroke-width="45"></path><path d="M1020 415.88 L1020 504.13" stroke-width="45"></path><path d="M1080 251.09 L1080 308.9" stroke-width="45"></path><path d="M1140 252.38 L1140 307.62" stroke-width="45"></path><path d="M1200 166.59 L1200 256.59000000000003" stroke-width="45"></path><path d="M1200 324.09000000000003 L1200 393.41" stroke-width="45"></path><path d="M1260 108.16 L1260 198.16" stroke-width="45"></path><path d="M1260 265.65999999999997 L1260 310.65999999999997" stroke-width="45"></path><path d="M1260 378.15999999999997 L1260 451.84" stroke-width="45"></path><path d="M1320 257.68 L1320 302.32" stroke-width="45"></path><path d="M1380 89.07 L1380 224.07" stroke-width="45"></path><path d="M1380 291.57 L1380 336.57" stroke-width="45"></path><path d="M1380 404.07 L1380 470.93" stroke-width="45"></path></g></g><defs><mask id="SvgjsMask1008"><rect width="1440" height="560" fill="#ffffff"></rect></mask><linearGradient x1="1432.8" y1="280" x2="7.2000000000000455" y2="280" gradientUnits="userSpaceOnUse" id="SvgjsLinearGradient1009"><stop stop-color="#3a7cc3" offset="0"></stop><stop stop-color="#dd1133" offset="1"></stop></linearGradient></defs></svg>